Simulation
nRows=31
nColumns=15
endheader
time  TH_x TH_y TH_z SC_y  SC_z  SC_x  AC_y  AC_z  AC_x  GH_y  GH_z  GH_yy  EL_x  PS_y
0.0  0.000000  0.000000  0.000000  -21.41934826674563  4.513938938946948  -8.367174781270451  55.0294635827511  15.824741558286851  8.345399396682868  33.606903214426794  17.602792161417547  0.44752573000588736  50.740106303778916  120.000000
0.040225563909774435  0.000000  0.000000  0.000000  -20.92697068777155  4.518622996266732  -8.117826866276612  55.414218237544205  15.289433887168151  8.424324172381315  34.40118201914037  16.649340937541737  1.520555095226092  51.38548126150235  120.000000
0.08045112781954887  0.000000  0.000000  0.000000  -20.638159163654468  4.530527540407794  -7.9716705155129635  55.68914827896755  14.7193668682924  8.433204226012057  34.752740275705605  15.6554902310375  2.866999202491002  51.961363284791254  120.000000
0.1206766917293233  0.000000  0.000000  0.000000  -20.482165560145017  4.523387962675398  -7.871337030063038  55.87437152344133  14.194735525845164  8.39418699297135  34.64427320257275  14.720319631389888  4.385463139238542  52.453012615809705  120.000000
0.16090225563909774  0.000000  0.000000  0.000000  -20.448113110227325  4.50245648069584  -7.784642245347965  55.99865688312049  13.751903937311754  8.321371504305969  34.2362740825728  13.940170753183933  5.76086705178934  52.861799786954805  120.000000
0.20112781954887218  0.000000  0.000000  0.000000  -20.485189431366873  4.471767987645891  -7.686627357265883  56.08446972174913  13.416418352386094  8.220649176220594  33.682722713013916  13.38568063053719  6.743565886494655  53.1866281616313  120.000000
0.2413533834586466  0.000000  0.000000  0.000000  -20.556424757253257  4.437349510675858  -7.565698324474245  56.13698704748863  13.19224442291369  8.10432305142346  33.1250770033567  13.09589071768704  7.141717397566285  53.43206215626801  120.000000
0.28157894736842104  0.000000  0.000000  0.000000  -20.64188770854341  4.406219158202323  -7.42332938136586  56.15449209012646  13.071029528580071  7.980104920030294  32.666116111969735  13.084834369302037  6.834416910922774  53.60433540408993  120.000000
0.3218045112781955  0.000000  0.000000  0.000000  -20.72467448093244  4.384191843787022  -7.267649158957266  56.13467825228873  13.042685309762014  7.85153134662937  32.322323796949824  13.346101116470681  5.822616912075078  53.7082892256401  120.000000
0.3620300751879699  0.000000  0.000000  0.000000  -20.794620894587897  4.375163500403583  -7.1085948856433365  56.07289739479534  13.096647364257986  7.723492164622836  32.043130589721976  13.857728511397921  4.198909883973678  53.74927995211393  120.000000
0.40225563909774437  0.000000  0.000000  0.000000  -20.84898674125053  4.380273528731296  -6.95581542496602  55.96693087984246  13.224312119789474  7.600327025722658  31.7587440188935  14.59067812739848  2.086637894305769  53.73288548779883  120.000000
0.4424812030075188  0.000000  0.000000  0.000000  -20.88757654678901  4.39921071616638  -6.817167261438203  55.81724056335287  13.41936252761908  7.486268890844216  31.407386910504474  15.513030704116284  -0.39341281927994665  53.66449370405454  120.000000
0.4827067669172932  0.000000  0.000000  0.000000  -20.91151145333397  4.4302614935989135  -6.697930236867411  55.62600150544564  13.67732695471313  7.385346709480229  30.946597342534773  16.59266118017222  -3.139031466842558  53.54961494046487  120.000000
0.5229323308270677  0.000000  0.000000  0.000000  -20.922284517229247  4.471158520857122  -6.600872681303952  55.395895671113955  13.994979863523394  7.300999608366739  30.352171210869272  17.79932490351673  -6.068260504593232  53.3931882846418  120.000000
0.5631578947368421  0.000000  0.000000  0.000000  -20.921969878642198  4.519884934512477  -6.526041587749181  55.12947471734545  14.369675289639291  7.235250967992515  29.61441675132352  19.105576753578482  -9.116879381923228  53.199846727702244  120.000000
0.6033834586466166  0.000000  0.000000  0.000000  -20.91479374873329  4.573874199239344  -6.470870407051524  54.82896700722028  14.79750515697148  7.1890435860974895  28.734621876670406  20.486625161352464  -12.23380268613606  52.97488202932489  120.000000
0.643609022556391  0.000000  0.000000  0.000000  -20.9050873290666  4.629904507743013  -6.430332526720011  54.49729991557636  15.270583250768764  7.162916979158172  27.72574320371442  21.918431435262836  -15.378982308427984  52.72355742235869  120.000000
0.6838345864661654  0.000000  0.000000  0.000000  -20.896154924155258  4.683437353802485  -6.397612344247604  54.14239891471476  15.777647158138922  7.154478307339032  26.613365551815633  23.377066084793867  -18.52429231493971  52.450554362667965  120.000000
0.7240601503759398  0.000000  0.000000  0.000000  -20.891649983853842  4.7298796018244085  -6.3657417575099  53.7764037579302  16.306214885231906  7.159006949741579  25.431043456539168  24.839109094730958  -21.64957721311561  52.160869680232906  120.000000
0.7642857142857142  0.000000  0.000000  0.000000  -20.895234284447735  4.768053684331247  -6.327870070024619  53.411001135446796  16.842344360019528  7.172013209247521  24.20981409215172  26.281948268961553  -24.73299764765918  51.859840570199395  120.000000
0.8045112781954887  0.000000  0.000000  0.000000  -20.911187237068948  4.799062951162874  -6.276684498600055  53.05465334748417  17.37111937410781  7.1890447990242805  22.974576452089597  27.684243969040473  -27.7479231086963  51.552009672783974  120.000000
0.8447368421052631  0.000000  0.000000  0.000000  -20.943550842833606  4.8240191741838485  -6.204744551072283  52.71328328094331  17.876956513609695  7.204740572637615  21.746111161871173  29.027024861412  -30.665792970110132  51.241045836496454  120.000000
0.8849624060150376  0.000000  0.000000  0.000000  -20.993481744320828  4.844464619894623  -6.104085871836596  52.392969274219304  18.34284522149825  7.213309835591815  20.547376766961552  30.29405869144627  -33.45979310761002  50.93078722790183  120.000000
0.925187969924812  0.000000  0.000000  0.000000  -21.0579198041238  4.861799934652511  -5.969156119502537  52.102360205232976  18.75367078025641  7.208937117030128  19.408193990505914  31.47169729475962  -36.10892363873992  50.62650173623717  120.000000
0.9654135338345864  0.000000  0.000000  0.000000  -21.12976696227475  4.875772689145836  -5.799889871454191  51.84987898075953  19.099026097785508  7.187272705475691  18.361567260009576  32.54794057522623  -38.595295801364806  50.334638314627135  120.000000
1.0056390977443608  0.000000  0.000000  0.000000  -21.20013336730602  4.884436913342357  -5.601696731557548  51.64158921305051  19.372797783962525  7.14546068657285  17.43775076485713  33.51247119967808  -40.90053513913304  50.06131350971827  120.000000
1.0458646616541354  0.000000  0.000000  0.000000  -21.26090964531033  4.885218401941702  -5.384176154636321  51.48091061393508  19.572658919578213  7.082310621080081  16.6620649554867  34.35714664438129  -43.005857998210786  49.81214155594833  120.000000
1.0860902255639098  0.000000  0.000000  0.000000  -21.305633813941906  4.875537975743574  -5.159627876453297  51.36867178426239  19.700137311857965  6.998528625892068  16.054192987384713  35.07704212908247  -44.89447997476457  49.59208358805511  120.000000
1.1263157894736842  0.000000  0.000000  0.000000  -21.33000318090047  4.853221861026191  -4.940991819089423  51.30337615236587  19.760802008521253  6.896776730775341  15.628415927940845  35.67133465295872  -46.555131885960236  49.40434220740103  120.000000
1.1665413533834585  0.000000  0.000000  0.000000  -21.331779676085876  4.817063324863007  -4.740368320363865  51.281585964566396  19.764049190051757  6.781596772999777  15.393210990216064  36.143855218254195  -47.98471817133806  49.24989539948826  120.000000
1.2067669172932332  0.000000  0.000000  0.000000  -21.31027215295521  4.76707497424412  -4.567761536522204  51.29791176294566  19.722282611957546  6.659470172053715  15.351066674402002  36.5031340017395  -49.18870484568793  49.127395615907254  120.000000
